<svg width="1339" height="193" viewBox="0 0 1339 193" fill="none" xmlns="http://www.w3.org/2000/svg"><g><path d="M1076.78 61.9214H1048.03V188.282H1076.78V61.9214Z" fill="#242222"></path><path d="M370.09 61.9344H341.387V124.665C341.218 138.69 341.166 146.936 336.859 154.608C332.423 162.514 326.541 166.872 318.318 166.872C311.461 166.872 305.854 164.941 301.755 159.853C297.643 154.778 295.718 148.854 295.718 140.608L295.978 61.9214H267.301L267.041 142.709C267.041 158.131 270.671 170.095 277.957 178.588C285.075 186.912 294.872 191.153 307.324 191.335H307.337C318.969 191.335 325.357 188.348 332.292 181.002C335.792 177.297 340.125 169.064 340.255 161.679C340.268 161.236 340.281 160.466 340.281 160.453H341.361V188.269H370.168L370.103 61.9214L370.09 61.9344Z" fill="#242222"></path><path d="M1176.24 61.9214L1147.52 162.293L1118.8 61.9214H1089.62L1128.36 188.282H1165.82L1204.56 61.9214H1176.24Z" fill="#242222"></path><path d="M735.681 62.2738C731.231 60.0036 726.26 58.8555 720.783 58.8555C714.277 58.8555 708.24 61.3475 702.671 66.3445C697.102 71.3415 692.353 82.9013 690.466 92.517H689.361V61.9085H661.725V188.27H690.479V125.865C690.505 115.689 691.677 109.413 694.487 103.163C697.31 96.8486 700.823 92.3865 705.026 89.751C709.216 87.1285 713.379 85.8107 717.491 85.8107C722.969 85.8107 728.186 87.1285 733.156 89.751L739.558 64.9876C739.09 64.4788 738.231 63.5394 735.694 62.2608" fill="#242222"></path><path d="M462.901 62.2738C458.451 60.0036 453.481 58.8555 448.003 58.8555C441.498 58.8555 435.461 61.3475 429.892 66.3445C424.323 71.3415 419.574 82.9013 417.687 92.517H416.581V61.9085H388.945V188.27H417.7V125.865C417.726 115.689 418.897 109.413 421.708 103.163C424.531 96.8486 428.044 92.3865 432.247 89.751C436.436 87.1285 440.6 85.8107 444.712 85.8107C450.189 85.8107 455.407 87.1285 460.377 89.751L466.779 64.9876C466.31 64.4788 465.451 63.5394 462.914 62.2608" fill="#242222"></path><path d="M252.964 90.3904C250.453 80.4225 245.586 72.5812 238.495 67.0753C231.391 61.5694 222.283 58.7773 211.432 58.7773C200.58 58.7773 190.627 61.5694 181.35 67.0622C172.073 72.5551 164.097 80.3964 157.643 90.3513C151.19 100.293 146.597 111.97 143.995 125.057C141.392 138.143 141.327 149.833 143.838 159.775C146.337 169.743 151.203 177.584 158.307 183.09C165.398 188.596 174.415 191.388 185.11 191.388C195.805 191.388 206.175 188.596 215.452 183.103C224.729 177.61 232.705 169.769 239.159 159.827C245.612 149.885 250.205 138.208 252.808 125.122C255.41 112.036 255.462 100.358 252.964 90.4035M186.802 168.034C179.333 168.034 174.558 164.524 171.774 156.996C168.846 149.115 169.002 138.234 172.203 125.526C175.586 112.14 180.673 101.507 187.335 93.9001C193.919 86.385 201.153 82.5883 208.843 82.5883C216.532 82.5883 222.296 86.4111 224.977 93.6261C227.644 100.802 227.214 111.096 223.675 125.096C220.292 138.482 215.205 149.128 208.543 156.722C201.96 164.237 194.647 168.047 186.789 168.047" fill="#242222"></path><path d="M1030.15 159.775C1029.55 160.806 1029.05 161.627 1028.77 162.071C1025.53 166.82 1021.07 169.221 1015.38 169.221C1006.29 169.221 1001.75 162.515 1001.75 149.102V83.2275H1031.19V61.8173H1001.75V16.2568H972.915V61.8042H955.623V83.2145H972.915V152.703C972.915 164.746 976.038 174.205 982.309 181.081C988.567 187.956 998.56 191.401 1010.57 191.401C1014 191.401 1019.4 190.709 1023.36 189.339C1026.44 188.257 1029.05 186.808 1031.19 184.982V159.762H1030.16L1030.15 159.775Z" fill="#242222"></path><path d="M1304.02 176.353H1314.08V178.499H1310.22V191.401H1307.88V178.499H1304.03V176.353H1304.02ZM1315.3 176.353H1317.98L1321.42 185.01L1324.81 176.353H1327.45V191.401H1325.14V185.263C1325.14 183.579 1325.19 182.01 1325.31 180.555L1322.29 188.329H1320.49L1317.47 180.555C1317.56 182.178 1317.6 183.748 1317.6 185.263V191.401H1315.29V176.353H1315.3Z" fill="#242222"></path><path d="M950.237 172.639C949.456 165.907 949.066 160.166 949.066 155.443V106.073C949.066 91.0165 944.746 79.3785 936.107 71.1458C927.467 62.9131 915.614 58.8032 900.56 58.8032C891.829 58.8032 883.658 60.7342 876.047 64.5831C868.435 68.432 862.333 73.8074 857.441 80.4744C853.056 86.45 850.545 95.2829 850.258 102.902L877.452 104.507C877.972 97.8923 879.794 92.4908 883.997 88.3549C888.524 83.8928 894.054 81.6617 900.547 81.6617C907.039 81.6617 911.841 83.3318 915.432 86.6457C919.023 89.9727 920.818 94.1739 920.818 99.2492C920.649 104.155 918.463 107.704 914.274 109.883C910.084 112.074 903.448 114.214 894.38 116.315C885.142 118.585 877.569 120.907 871.662 123.269C865.755 125.63 860.706 129.571 856.517 135.09C852.314 140.608 850.232 148.084 850.232 157.544C850.232 167.707 853.394 175.888 859.731 182.098C866.054 188.309 874.524 191.414 885.142 191.414C896.774 191.414 904.619 187.735 911.541 180.389C915.041 176.684 919.582 169.09 919.712 161.706C919.738 161.34 919.738 160.479 919.738 160.479H920.818V188.296H953.503C952.11 184.616 951.017 179.384 950.224 172.639M920.818 132.063C920.818 137.842 919.699 143.622 917.475 149.389C915.25 155.169 912.049 159.892 907.846 163.571C903.657 167.251 898.907 169.09 893.599 169.09C888.811 169.09 885.037 167.825 882.305 165.281C879.56 162.749 878.194 159.279 878.194 154.908C878.194 150.537 879.313 146.675 881.537 143.87C883.749 141.078 886.495 138.978 889.748 137.568C893 136.172 897.359 134.685 902.837 133.106C907.794 131.71 908.705 131.462 912.283 129.753C914.755 128.579 919.725 127.053 919.725 121.22H920.805V132.05L920.818 132.063Z" fill="#242222"></path><path d="M792.035 162.658C787.234 166.703 781.912 169.077 776.096 169.077C762.89 169.077 756.723 159.592 756.723 141.339C756.723 136.603 757.165 133.733 757.62 130.902H833.02C837.47 122.682 839.266 112.636 839.266 102.459C839.266 89.3075 835.883 78.7394 829.104 70.7546C822.325 62.7698 812.268 58.7773 799.751 58.7773C779.857 58.7773 763.267 67.3754 749.996 84.5714C736.711 101.768 730.062 121.142 730.062 142.722C730.062 157.987 733.797 169.912 741.252 178.51C748.708 187.109 759.13 191.401 772.492 191.401C785.855 191.401 797.773 187.409 807.896 179.424H807.87C813.816 174.727 824.602 161.171 827.881 148.567L802.535 147.08C800.141 153.564 796.641 158.77 792.035 162.645V162.658ZM777.033 90.0512C782.862 84.441 789.381 81.6358 796.576 81.6358C802.236 81.6358 806.569 83.4363 809.561 87.0243C812.554 90.6253 814.063 95.4919 814.063 101.624C814.063 105.838 813.204 110.548 812.346 113.184H762.877C766.481 104.233 771.204 95.6615 777.033 90.0382" fill="#242222"></path><path d="M1262.12 162.658C1257.32 166.703 1252 169.077 1246.18 169.077C1232.97 169.077 1226.81 159.592 1226.81 141.339C1226.81 136.603 1227.25 133.733 1227.7 130.902H1303.1C1307.55 122.682 1309.35 112.636 1309.35 102.459C1309.35 89.3075 1305.97 78.7394 1299.19 70.7546C1292.41 62.7698 1282.35 58.7773 1269.83 58.7773C1249.94 58.7773 1233.35 67.3754 1220.08 84.5714C1206.8 101.768 1200.15 121.142 1200.15 142.722C1200.15 157.987 1203.88 169.912 1211.34 178.51C1218.79 187.109 1229.21 191.401 1242.58 191.401C1255.94 191.401 1267.86 187.409 1277.98 179.424H1277.95C1283.9 174.727 1294.69 161.171 1297.96 148.567L1272.62 147.08C1270.23 153.564 1266.73 158.77 1262.12 162.645V162.658ZM1247.12 90.0512C1252.95 84.441 1259.46 81.6358 1266.66 81.6358C1272.32 81.6358 1276.65 83.4363 1279.65 87.0243C1282.64 90.6253 1284.15 95.4919 1284.15 101.624C1284.15 105.838 1283.29 110.548 1282.43 113.184H1232.96C1236.56 104.233 1241.29 95.6615 1247.12 90.0382" fill="#242222"></path><path d="M29.067 192.679C33.1656 183.103 58.3033 122.956 58.3033 122.956C41.4017 118.898 26.3216 108.486 16.5372 93.8346C6.01109 78.0737 0.455286 56.3242 -0.000107551 29.2385C-0.117209 21.0188 1.13187 9.73306 1.61329 5.04915H31.409C30.9797 9.7722 29.8867 20.5361 30.0559 31.039C30.3551 49.618 33.8421 64.6613 40.3998 75.7252C46.2549 85.6149 57.2624 93.3388 69.4279 96.2875C69.4279 96.2875 70.4688 93.8607 71.3145 91.7732C77.3127 76.7821 93.4987 34.7704 104.09 19.427C110.973 9.45907 121.824 3.02686 131.752 3.02686C141.679 3.02686 151.008 7.29325 156.968 14.43C161.287 19.6097 163.837 26.7465 163.955 34.0137C164.332 56.9635 151.425 81.7139 131.257 100.645C120.094 111.122 104.337 119.524 89.3091 123.034C89.3091 123.034 66.3182 183.807 62.584 192.692H29.067V192.679ZM134.432 28.5731C127.692 28.5731 120.393 44.8036 111.116 67.4273L100.434 93.4562C100.434 93.4562 112.586 88.5114 126.235 69.2539C138.088 52.5406 140.677 43.7729 140.573 37.0015C140.482 31.5608 138.244 28.5731 134.432 28.5731Z" fill="#242222"></path><path d="M1061.53 41.5809H1063.13C1072.58 41.5809 1080.24 33.8962 1080.24 24.424C1080.24 14.9518 1072.58 7.26709 1063.13 7.26709H1061.53C1052.09 7.26709 1044.42 14.9518 1044.42 24.424C1044.42 33.8962 1052.09 41.5809 1061.53 41.5809Z" fill="#242222"></path><path d="M646.164 77.5388C655.116 54.7195 656 33.6354 648.766 21.2928C641.103 8.19357 626.699 0 608.757 0C589.331 0 571.87 7.71083 557.766 18.7878C542.777 30.5563 531.574 46.0432 525.797 57.2637C516.52 75.2687 507.698 100.215 506.762 124C505.903 145.932 510.301 163.206 519.851 174.935C529.44 186.717 543.661 192.679 562.111 192.679C582.24 192.679 599.961 186.208 614.781 173.448C629.549 160.727 639.463 142.422 646.294 120.907L615.522 118.833C610.838 132.819 604.84 144.744 595.732 153.525C586.716 162.227 576.892 166.65 566.561 166.65C557.024 166.65 550.05 162.893 544.989 155.404C539.927 147.902 537.611 137.477 538.132 124.417C538.743 108.813 541.71 94.4218 547.669 79.3393C553.602 64.283 561.669 51.6534 571.623 41.8029C581.472 32.0567 593.156 27.1119 603.825 27.1119C613.506 27.1119 620.493 30.8433 623.264 40.0024C626.062 49.2397 621.143 66.488 613.545 77.5388H646.164Z" fill="#242222"></path></g></svg>